<svg xmlns="http://www.w3.org/2000/svg" width="544" height="497.333" viewBox="0 0 408 373"><path fill="#21367d" d="M160 3c-27.3 2.7-68.9 22.4-93.7 44.2C33 76.6 14.1 117.9 18 153.2c2 17.6 7.9 29.7 20.2 41.4 9 8.4 16.1 12.7 27 16.5 22.1 7.5 46.6 5.6 69.2-5.5 15.9-7.8 25.9-17.5 33.1-32.1 11-22.4 7.6-43.1-8.5-51.9-13.5-7.3-35.2-1.9-41.6 10.5l-1.5 2.9h4.1c7 0 13.5 4.3 17.3 11.5 3.3 6 3 19-.5 26.5-3.7 8.1-9.8 14.4-17.6 18.2-5.9 2.9-7.6 3.3-15.2 3.3-7.5 0-9.1-.3-13.8-2.9-10.2-5.7-17.8-16-21.3-29.2-2.6-9.4-3.1-30.2-1-39.9C72 102.8 81.3 81.8 92.4 67c8-10.7 22.8-25.1 32.7-31.8 22-14.8 46.2-21.9 60.5-17.7 9.5 2.8 15.4 7.9 19.7 17.2 2 4.3 2.2 6.4 2.2 20.3 0 17.7-.4 19.7-15.2 85-24.4 108-35.5 140.9-53.6 159.1-13 13-30.5 15.6-36.9 5.5-1.5-2.5-1.8-4.4-1.5-9.6.3-3.6.6-7.2.8-8 .7-2.6-5.6-2.4-11.5.3-7.3 3.4-14 9.7-17.3 16.6-2.5 5-2.8 6.7-2.8 15.6s.3 10.6 2.8 15.7c3.4 7 9 12.1 17.6 16.1 5.6 2.7 8 3.2 16.1 3.5 27.1 1.1 48-12.8 62.4-41.7 10.7-21.3 16.6-45.3 40.5-165.1 5.6-27.8 10.5-51.4 10.9-52.4.6-1.4 1.3.7 2.4 7.5.9 5.2 5.1 28.7 9.2 52.4 4.2 23.6 9.4 53.3 11.6 66 8.9 50.7 10.8 57.7 16.1 58.3 4.1.5 7.6-3.3 12.3-13.1 4.2-8.8 30.4-74.1 58.6-146.2 7.4-18.7 13.8-34.5 14.2-35 .5-.6.7 36.8.5 87-.3 78.5-.5 88.7-2 94.3-2.3 8.6-4.1 11.7-10.5 18.4-8.4 8.9-6.8 9.8 9.5 5.4 11.7-3.1 25.1-5.5 39.4-7.1 14.7-1.6 21.9-3 21.9-4.3 0-.4-2.1-2.5-4.6-4.6-6.2-5.2-9.3-12.1-10.4-23.3-.5-4.8-1-48.6-1.2-97.3l-.3-88.5 2.3-8.9c3-12.1 7.3-20.5 13.7-27.5 7.3-7.8 7.3-9.7 0-10.6-3-.4-11.7-.5-19.2-.3-12.3.3-14.4.7-19.4 3-7.6 3.5-13.5 9-16.9 15.9-1.6 3.1-6.9 15.8-11.9 28-4.9 12.3-16.4 40.6-25.6 62.9-18.2 44-23.2 56.2-24.6 59.9-.5 1.3-1.2 2.2-1.4 1.9-.3-.2-6.1-31.3-13-69.1s-13.6-72.2-15-76.4c-3.4-10.7-8.8-19.4-16.5-26.7C225.5 5 215.2 1.9 186.5 2.1c-10.4.1-22.4.5-26.5.9"/></svg>