<svg version="1.0"
 xmlns="http://www.w3.org/2000/svg"
 width="512.000000pt" 
 height="512.000000pt" 
 viewBox="0 0 512.000000 512.000000"
 preserveAspectRatio="xMidYMid meet">

<g transform="translate(0.000000,512.000000) scale(0.100000,-0.100000)"
fill="#f90303" 
stroke="none">
<path fill="#f46a51"
d="M2139 5102 c-78 -21 -151 -66 -212 -131 -96 -103 -117 -177 -117
-418 l0 -183 -605 0 -605 0 2 -302 3 -303 1955 0 1955 0 3 303 2 302 -604 0
-605 0 -3 203 c-3 183 -6 207 -27 260 -43 109 -150 214 -261 259 -53 22 -68
23 -435 25 -335 2 -388 0 -446 -15z m791 -304 c72 -38 80 -64 80 -260 l0 -168
-450 0 -450 0 0 168 c0 195 8 221 80 259 42 23 49 23 369 23 319 0 328 -1 371
-22z"/>
<path
 d="M930 3457 c0 -2 61 -698 135 -1547 87 -1003 140 -1563 150 -1596 43
-143 167 -259 322 -299 86 -22 1960 -22 2046 0 155 40 279 156 322 299 10 33
63 593 150 1596 74 849 135 1545 135 1547 0 2 -733 3 -1630 3 -896 0 -1630 -1
-1630 -3z m1178 -1574 l-3 -828 -147 -3 -148 -3 0 831 0 830 150 0 150 0 -2
-827z m602 -3 l0 -830 -150 0 -150 0 0 830 0 830 150 0 150 0 0 -830z m600 0
l0 -831 -147 3 -148 3 -3 828 -2 827 150 0 150 0 0 -830z"/>
</g>
</svg>
