<svg xmlns="http://www.w3.org/2000/svg" width="100" height="100" class="icon-pencil" viewBox="0 0 26 26"><path fill="#f60" d="M20.094.25a2.25 2.25 0 0 0-1.625.656l-1 1.031 6.593 6.626 1-1.032a2.32 2.32 0 0 0 0-3.281L21.75.938A2.36 2.36 0 0 0 20.094.25" class="lapiz-tapa"/>

<path fill="#e1f3f3" d="m16.344 2.844-1.563 1.5 6.875 6.875L23.25 9.75Z" class="lapiz-union"/>

<path fill="#069723" d="M13.781 5.438 2.97 16.156a.98.98 0 0 0-.5.625L.156 24.625a.98.98 0 0 0 .242.977.98.98 0 0 0 .977.242l7.844-2.313a.98.98 0 0 0 .781-.656l10.656-10.562-1.468-1.47L8.25 21.814l-4.406 1.28-.938-.937 1.344-4.593L15.094 6.75Z" class="lapiz-cuerpo"/>

<path fill="rgba(125,243,7,0.993)" d="m16.156 7.844-10.968 11 1.593.343.219 1.47 11-10.97Z" class="lapiz-linea"/>
</svg>